<svg id="SvgjsSvg1001" width="288" height="288" xmlns="http://www.w3.org/2000/svg" version="1.1" xmlns:xlink="http://www.w3.org/1999/xlink" xmlns:svgjs="http://svgjs.com/svgjs"><defs id="SvgjsDefs1002"></defs><g id="SvgjsG1008" transform="matrix(1,0,0,1,0,0)"><svg xmlns="http://www.w3.org/2000/svg" width="288" height="288" enable-background="new 0 0 792 612" viewBox="0 0 190.764 222.769"><path d="m 91.256,43.595 c -42.332,2.172 -75.995,37.577 -75.995,80.931 0,14.627 3.832,28.349 10.535,40.195 l -8.118,15.765 C 6.548,164.704 0,145.388 0,124.526 0,71.248 42.704,28.053 95.382,28.053 c 0.753,0 1.504,0.009 2.252,0.026 L 111.412,0 h 29.434 v 39.696 c 29.733,16.337 49.918,48.2 49.918,84.829 0,53.279 -42.704,96.473 -95.382,96.473 -16.079,0 -31.229,-4.024 -44.519,-11.132 l 6.712,-13.875 c 11.262,6.107 24.134,9.571 37.807,9.571 44.249,0 80.121,-36.282 80.121,-81.037 0,-27.971 -14.013,-52.633 -35.325,-67.197 v 76.695 L 113.281,108.581 V 50.453 l -33.218,78.891 h 33.218 V 116.68 l 31.141,29.274 -32.179,24.705 V 157.58 H 68.437 L 39.582,222.769 3.874,222.07 91.256,43.595 z" fill="#ffffff" class="color000 svgShape"></path><polygon points="413.444 374.604 441.359 350.69 441.359 374.604" transform="translate(-301.234 -194.967)" fill="#ffffff" class="color000 svgShape"></polygon></svg></g></svg>